<mxfile host="app.diagrams.net" modified="2023-05-19T19:05:30.319Z" agent="Mozilla/5.0 (Windows NT 10.0; Win64; x64) AppleWebKit/537.36 (KHTML, like Gecko) Chrome/113.0.0.0 Safari/537.36" etag="lNyW35qz5MMGqr9bRfJ9" version="21.3.2" type="github">
  <diagram name="Page-1" id="2YBvvXClWsGukQMizWep">
    <mxGraphModel dx="1518" dy="636" grid="1" gridSize="10" guides="1" tooltips="1" connect="1" arrows="1" fold="1" page="1" pageScale="1" pageWidth="850" pageHeight="1100" math="0" shadow="0">
      <root>
        <mxCell id="0" />
        <mxCell id="1" parent="0" />
        <mxCell id="474r09Rh-GmbofosoZ4u-5" style="edgeStyle=elbowEdgeStyle;rounded=0;orthogonalLoop=1;jettySize=auto;html=1;elbow=vertical;curved=0;entryX=0.076;entryY=0.011;entryDx=0;entryDy=0;entryPerimeter=0;" edge="1" parent="1" source="aM9ryv3xv72pqoxQDRHE-1" target="474r09Rh-GmbofosoZ4u-4">
          <mxGeometry relative="1" as="geometry" />
        </mxCell>
        <mxCell id="aM9ryv3xv72pqoxQDRHE-1" value="Step&amp;nbsp;" style="shape=umlLifeline;perimeter=lifelinePerimeter;whiteSpace=wrap;html=1;container=0;dropTarget=0;collapsible=0;recursiveResize=0;outlineConnect=0;portConstraint=eastwest;newEdgeStyle={&quot;edgeStyle&quot;:&quot;elbowEdgeStyle&quot;,&quot;elbow&quot;:&quot;vertical&quot;,&quot;curved&quot;:0,&quot;rounded&quot;:0};" parent="1" vertex="1">
          <mxGeometry x="40" y="40" width="130" height="40" as="geometry" />
        </mxCell>
        <mxCell id="474r09Rh-GmbofosoZ4u-6" style="edgeStyle=elbowEdgeStyle;rounded=0;orthogonalLoop=1;jettySize=auto;html=1;elbow=vertical;curved=0;entryX=0.553;entryY=0.011;entryDx=0;entryDy=0;entryPerimeter=0;" edge="1" parent="1" source="474r09Rh-GmbofosoZ4u-7" target="474r09Rh-GmbofosoZ4u-4">
          <mxGeometry relative="1" as="geometry">
            <Array as="points">
              <mxPoint x="410" y="60" />
            </Array>
          </mxGeometry>
        </mxCell>
        <mxCell id="aM9ryv3xv72pqoxQDRHE-5" value="Process" style="shape=umlLifeline;perimeter=lifelinePerimeter;whiteSpace=wrap;html=1;container=0;dropTarget=0;collapsible=0;recursiveResize=0;outlineConnect=0;portConstraint=eastwest;newEdgeStyle={&quot;edgeStyle&quot;:&quot;elbowEdgeStyle&quot;,&quot;elbow&quot;:&quot;vertical&quot;,&quot;curved&quot;:0,&quot;rounded&quot;:0};" parent="1" vertex="1">
          <mxGeometry x="425" y="40" width="125" height="40" as="geometry" />
        </mxCell>
        <mxCell id="474r09Rh-GmbofosoZ4u-3" value="ID&amp;nbsp; init PK&lt;br&gt;step_id int PK&lt;br&gt;process_id int PK&lt;br&gt;status Varchar N&amp;nbsp;&lt;br&gt;Priotority Int" style="whiteSpace=wrap;html=1;aspect=fixed;" vertex="1" parent="1">
          <mxGeometry x="190" y="180" width="170" height="170" as="geometry" />
        </mxCell>
        <mxCell id="474r09Rh-GmbofosoZ4u-4" value="Process step" style="rounded=0;whiteSpace=wrap;html=1;" vertex="1" parent="1">
          <mxGeometry x="190" y="120" width="170" height="60" as="geometry" />
        </mxCell>
        <mxCell id="474r09Rh-GmbofosoZ4u-8" value="" style="edgeStyle=elbowEdgeStyle;rounded=0;orthogonalLoop=1;jettySize=auto;html=1;elbow=vertical;curved=0;entryX=0.553;entryY=0.011;entryDx=0;entryDy=0;entryPerimeter=0;" edge="1" parent="1" source="aM9ryv3xv72pqoxQDRHE-5" target="474r09Rh-GmbofosoZ4u-7">
          <mxGeometry relative="1" as="geometry">
            <mxPoint x="474" y="80" as="sourcePoint" />
            <mxPoint x="284" y="121" as="targetPoint" />
          </mxGeometry>
        </mxCell>
        <mxCell id="474r09Rh-GmbofosoZ4u-9" style="edgeStyle=orthogonalEdgeStyle;rounded=0;orthogonalLoop=1;jettySize=auto;html=1;" edge="1" parent="1" source="474r09Rh-GmbofosoZ4u-7">
          <mxGeometry relative="1" as="geometry">
            <mxPoint x="490" y="420" as="targetPoint" />
          </mxGeometry>
        </mxCell>
        <mxCell id="474r09Rh-GmbofosoZ4u-7" value="ID int&amp;nbsp; PK&lt;br&gt;code nvarchar(10)&lt;br&gt;description nvarchar(10)&lt;br&gt;recuiret_id int" style="whiteSpace=wrap;html=1;aspect=fixed;" vertex="1" parent="1">
          <mxGeometry x="425" y="80" width="125" height="125" as="geometry" />
        </mxCell>
        <mxCell id="474r09Rh-GmbofosoZ4u-10" value="Job" style="rounded=0;whiteSpace=wrap;html=1;" vertex="1" parent="1">
          <mxGeometry x="270" y="420" width="290" height="60" as="geometry" />
        </mxCell>
        <mxCell id="474r09Rh-GmbofosoZ4u-13" value="ID int Pk&amp;nbsp;&lt;br&gt;code nvarchar (20)&lt;br&gt;name nvarchar (20)&lt;br&gt;description nvarchar (20)&lt;br&gt;date publish_date datetime&lt;br&gt;job start date datetime&amp;nbsp;&lt;br&gt;none vacancy int&lt;br&gt;psotion_id Int&amp;nbsp; FK&lt;br&gt;jOB_CATEGORY_ID INT FK&lt;br&gt;org_id int FK&lt;br&gt;procec_id int FK" style="whiteSpace=wrap;html=1;aspect=fixed;" vertex="1" parent="1">
          <mxGeometry x="270" y="470" width="290" height="290" as="geometry" />
        </mxCell>
      </root>
    </mxGraphModel>
  </diagram>
</mxfile>
